<?xml version="1.0" encoding="UTF-8" standalone="no"?>
<svg width="30px" height="27px" viewBox="0 0 30 27" version="1.1" xmlns="http://www.w3.org/2000/svg" xmlns:xlink="http://www.w3.org/1999/xlink">
    <!-- Generator: Sketch 39.1 (31720) - http://www.bohemiancoding.com/sketch -->
    <title>Group</title>
    <desc>Created with Sketch.</desc>
    <defs></defs>
    <g id="Page-1" stroke="none" stroke-width="1" fill="none" fill-rule="evenodd">
        <g id="Group" fill="#FFFFFF">
            <path d="M29.323661,18.3424945 C28.8522493,16.6284396 27.7232381,15.195956 26.1447555,14.3085165 L17.7925105,9.59894505 L16.9865093,9.16012088 L15.2849172,8.20384615 L15.2849172,13.4504505 L23.8114657,18.2433956 C24.3103028,18.5237802 24.6671374,18.9765495 24.8161486,19.5183297 C24.9654645,20.0604066 24.8889782,20.6262198 24.600707,21.1116264 C24.3127406,21.5973297 23.8477282,21.9447692 23.2909931,22.0898571 C22.9116088,22.188956 22.5130267,22.185989 22.1400416,22.0815495 L21.9203339,22.0195385 L17.2452219,24.6477363 L19.3219321,25.814967 C20.3604396,26.3991758 21.5363787,26.7077473 22.7223737,26.7077473 L22.7229831,26.7077473 C23.3193326,26.7077473 23.916901,26.6309011 24.4992331,26.4786923 C26.2596374,26.0193956 27.731161,24.9201099 28.6422928,23.3834835 C29.5534247,21.8468571 29.7953774,20.0565495 29.323661,18.3424945" id="Fill-8"></path>
            <path d="M12.673717,6.64318681 C12.673717,5.48574725 13.6412232,4.54371429 14.8302655,4.54371429 C15.802952,4.54371429 16.6586237,5.18281319 16.912156,6.09784615 L16.970054,6.30672527 L21.6530889,8.93937363 L21.6530889,6.64318681 C21.6530889,2.98008791 18.5921125,0 14.8302655,0 C11.0681137,0 8.00713737,2.98008791 8.00713737,6.64318681 L8.00774682,18.8712198 L12.673717,16.2480659 L12.673717,6.64318681 Z" id="Fill-9"></path>
            <path d="M16.5163165,16.9853736 L7.90413985,21.8266813 C7.57747319,22.0103407 7.20631647,22.1076593 6.83028413,22.1076593 C6.05963115,22.1076593 5.34230528,21.7056264 4.95835005,21.0582198 C4.67068836,20.5725165 4.59420204,20.0067033 4.74321324,19.4649231 C4.84499184,19.0949341 5.04641597,18.7608462 5.32585005,18.4985604 L5.49070702,18.3442747 L5.49070702,13.0881758 L3.41460627,14.2551099 C1.83612368,15.1425495 0.70711249,16.575033 0.235396072,18.2890879 C-0.236320346,20.0031429 0.00593711649,21.7934505 0.917068957,23.3300769 C2.13170826,25.3782198 4.39978662,26.6504835 6.83668339,26.6504835 C8.02694458,26.6504835 9.20288363,26.3430989 10.2374297,25.7615604 L21.1792394,19.6067473 L16.5163165,16.9853736" id="Fill-10"></path>
        </g>
    </g>
</svg>